# xmcd
#
# Track frame offsets:
#   150
#   13523
#   28314
#   45229
#   59158
#   78192
#   94707
#   108078
#   128664
#   139094
#   152269
#   168976
#   186039
#   200902
#   210008
#   229260
#   240800
#   260705
#   279131
#   300731
#   312285
#   331146
#
# Disc length: 4679 seconds
#
# Revision: 0
# Processed by: cddbd v1.5.1PL0 Copyright (c) Steve Scherf et al.
# Submitted via: Media_Universe 3.0
#
DISCID=17124516
DTITLE=Garth Brooks - Garth Brooks and The Chase
DYEAR=1900
DGENRE=Country
TTITLE0=Not Counting You
TTITLE1=Ive Got A Good Thing Going
TTITLE2=If Tomorrow Never Comes
TTITLE3=Uptpwn Down Home Good Ol Boy
TTITLE4=Everytime That It Rains
TTITLE5=Alabama Clay
TTITLE6=Much Too Young (To Feel This Damn Old)
TTITLE7=Cowboy Bill
TTITLE8=Nobody Gets Off In This Town
TTITLE9=I Know One
TTITLE10=The Dance
TTITLE11=We Shall Be Free
TTITLE12=Somewhere Other Than The Night
TTITLE13=Mr Right
TTITLE14=Every Now And Then
TTITLE15=Walking After Midnight
TTITLE16=Dixie Chicken
TTITLE17=Learning To Live Again
TTITLE18=That Summer
TTITLE19=Something With A Ring To It
TTITLE20=Night Riders Lament
TTITLE21=Face To Face
EXTD=
EXTT0=
EXTT1=
EXTT2=
EXTT3=
EXTT4=
EXTT5=
EXTT6=
EXTT7=
EXTT8=
EXTT9=
EXTT10=
EXTT11=
EXTT12=
EXTT13=
EXTT14=
EXTT15=
EXTT16=
EXTT17=
EXTT18=
EXTT19=
EXTT20=
EXTT21=
PLAYORDER=
